<?xml version="1.0" encoding="UTF-8" standalone="no"?>
<!-- Created with Inkscape (http://www.inkscape.org/) -->

<svg
   width="210mm"
   height="297mm"
   viewBox="0 0 210 297"
   version="1.1"
   id="svg5"
   inkscape:version="1.1.1 (c3084ef, 2021-09-22)"
   sodipodi:docname="sparla.svg"
   xmlns:inkscape="http://www.inkscape.org/namespaces/inkscape"
   xmlns:sodipodi="http://sodipodi.sourceforge.net/DTD/sodipodi-0.dtd"
   xmlns="http://www.w3.org/2000/svg"
   xmlns:svg="http://www.w3.org/2000/svg">
  <sodipodi:namedview
     id="namedview7"
     pagecolor="#ffffff"
     bordercolor="#666666"
     borderopacity="1.0"
     inkscape:pageshadow="2"
     inkscape:pageopacity="0.0"
     inkscape:pagecheckerboard="0"
     inkscape:document-units="mm"
     showgrid="false"
     inkscape:snap-bbox="true"
     inkscape:bbox-paths="true"
     inkscape:bbox-nodes="true"
     inkscape:snap-bbox-edge-midpoints="true"
     inkscape:snap-bbox-midpoints="true"
     showguides="true"
     inkscape:guide-bbox="true"
     inkscape:zoom="0.60019314"
     inkscape:cx="396.53902"
     inkscape:cy="551.48914"
     inkscape:window-width="1440"
     inkscape:window-height="774"
     inkscape:window-x="1349"
     inkscape:window-y="152"
     inkscape:window-maximized="0"
     inkscape:current-layer="layer1">
    <sodipodi:guide
       position="39.739131,137.98371"
       orientation="0,-1"
       id="guide7920" />
  </sodipodi:namedview>
  <defs
     id="defs2">
    <rect
       x="79.308456"
       y="677.1722"
       width="160.65046"
       height="209.45567"
       id="rect3320" />
  </defs>
  <g
     inkscape:label="Livello 1"
     inkscape:groupmode="layer"
     id="layer1">
    <path
       id="path7944"
       style="opacity:1;fill:#c66868;fill-opacity:1;stroke:none;stroke-width:30.2362"
       d="M 169.69922 261.11523 A 169.94529 169.94529 0 0 0 -0.24609375 431.06055 A 169.94529 169.94529 0 0 0 169.69922 601.00586 A 169.94529 169.94529 0 0 0 186.16992 600.10547 C 175.56841 598.98148 166.23795 596.80412 158.19531 593.55859 C 146.00059 588.46294 136.256 581.73514 128.96094 573.37305 C 121.66588 564.88029 116.43881 555.53701 113.28125 545.3457 C 110.12369 535.1544 108.54492 524.89813 108.54492 514.57617 L 172.89453 514.57617 C 173.00341 517.71196 173.76423 520.84859 175.17969 523.98438 C 176.59515 526.9895 178.66468 529.797 181.38672 532.41016 C 184.10876 534.89265 187.48506 536.91843 191.51367 538.48633 C 195.54229 539.92356 200.2234 540.64258 205.55859 540.64258 C 212.52701 540.64258 218.02607 539.66299 222.05469 537.70312 C 226.19218 535.74326 229.13094 533.19438 230.87305 530.05859 C 232.72403 526.79215 233.65039 523.33029 233.65039 519.67188 C 233.65039 512.74701 230.92845 507.78247 225.48438 504.77734 C 220.14918 501.64156 212.47217 499.02802 202.45508 496.9375 L 175.50781 491.25391 C 163.31309 488.64075 152.42337 484.26396 142.8418 478.12305 C 133.26023 471.98213 125.74876 463.48913 120.30469 452.64453 C 114.86061 441.79994 112.13867 428.14647 112.13867 411.68359 C 112.13867 393.26085 116.00379 377.5816 123.73438 364.64648 C 131.46496 351.58071 142.24432 341.64967 156.07227 334.85547 C 170.00909 328.06127 186.23234 324.66602 204.74219 324.66602 C 225.75631 324.66602 242.95914 328.84689 256.35156 337.20898 C 269.85286 345.44042 279.81623 356.02387 286.24023 368.95898 C 292.77312 381.8941 296.03906 395.35165 296.03906 409.33203 L 233.97656 409.33203 C 233.86768 405.54296 232.77969 401.75392 230.71094 397.96484 C 228.64219 394.04511 225.48466 390.77722 221.23828 388.16406 C 216.9919 385.42025 211.54607 384.04883 204.9043 384.04883 C 196.19378 384.04883 189.87872 386.13926 185.95898 390.32031 C 182.03925 394.3707 180.08008 399.27059 180.08008 405.01953 C 180.08008 410.76847 182.63843 415.27652 187.75586 418.54297 C 192.98217 421.67876 200.11518 424.09637 209.15234 425.79492 L 237.73242 431.08594 C 248.07616 432.91515 258.03952 436.57292 267.62109 442.06055 C 277.20266 447.54817 285.09649 455.78061 291.30273 466.75586 C 297.50898 477.73111 300.61133 492.42882 300.61133 510.85156 C 300.61133 523.53873 298.7158 535.21145 294.94336 545.87891 A 169.94529 169.94529 0 0 0 339.64453 431.06055 A 169.94529 169.94529 0 0 0 169.69922 261.11523 z "
       transform="scale(0.26458333)" />
  </g>
</svg>
